<svg xmlns="http://www.w3.org/2000/svg" viewBox="170.2 50 259.6 345.3" width="259.6" height="345.3" role="img" aria-label="Carili Design">
<rect x="170.2" y="50" width="259.6" height="345.3" rx="26" fill="#2a2521"/>
<path d="M230 190 L370 190" fill="none" stroke="#f6f1e9" stroke-width="2.6" stroke-linecap="round"/>
<path d="M248 150 C249 173 268 190 300 190 C332 190 351 173 352 150" fill="none" stroke="#c06b4e" stroke-width="3.4" stroke-linecap="round"/>
<path d="M248 150 L352 150" fill="none" stroke="#c06b4e" stroke-width="2.2" stroke-linecap="round"/>
<path d="M350 150 L350 104 C350 88 336 84 320 86 C312 87 306 92 306 104" fill="none" stroke="#f6f1e9" stroke-width="3.8" stroke-linecap="round" stroke-linejoin="round"/>
<path d="M306 114 C309 118.5 310.5 122 310.5 125.5 C310.5 129 308 131 306 131 C304 131 301.5 129 301.5 125.5 C301.5 122 303 118.5 306 114 Z" fill="#c06b4e"/>
<path d="M1051.2979736328125 341.2982177734375Q1054.2979736328125 337.44818115234375 1053.39794921875 333.8731994628906Q1052.4979248046875 330.2982177734375 1049.39794921875 322.998291015625Q992.5481567382812 210.799072265625 914.5484008789062 135.24945068359375Q836.5486450195312 59.6998291015625 741.0238952636719 22.224945068359375Q645.4991455078125 -15.24993896484375 536.4494018554688 -15.24993896484375Q413.9000244140625 -15.24993896484375 317.5753479003906 52.874908447265625Q221.25067138671875 120.999755859375 177.92575073242188 259.74957275390625Q134.600830078125 398.4993896484375 170.9007568359375 608.8992919921875Q198.20068359375 767.59912109375 268.0755920410156 912.8241882324219Q337.95050048828125 1058.0492553710938 439.35040283203125 1172.2994384765625Q540.7503051757812 1286.5496215820312 663.6502075195312 1352.4247741699219Q786.5501098632812 1418.2999267578125 919.8500366210938 1418.2999267578125Q994.800048828125 1418.2999267578125 1044.4000244140625 1398.7749328613281Q1094.0 1379.2499389648438 1123.2499389648438 1353.2749328613281Q1152.4998779296875 1327.2999267578125 1166.7498168945312 1307.7749328613281Q1180.999755859375 1288.2499389648438 1185.1497192382812 1288.2499389648438Q1192.2496948242188 1288.2499389648438 1203.0245056152344 1307.7249450683594Q1213.79931640625 1327.199951171875 1225.7740783691406 1352.1749572753906Q1237.7488403320312 1377.1499633789062 1246.9986572265625 1396.6249694824219Q1256.2484741210938 1416.0999755859375 1260.2984619140625 1416.0999755859375Q1263.4484252929688 1416.0999755859375 1265.4484252929688 1413.0Q1267.4484252929688 1409.9000244140625 1267.3984375 1401.8500366210938L1258.6988525390625 1079.402099609375Q1258.6488647460938 1072.2521362304688 1256.6488647460938 1069.6521606445312Q1254.6488647460938 1067.0521850585938 1252.4989013671875 1066.1021728515625Q1245.3489379882812 1064.2021484375 1239.4489135742188 1080.2521362304688L1206.4486694335938 1194.802978515625Q1172.8490600585938 1311.401611328125 1096.8240661621094 1360.0760803222656Q1020.799072265625 1408.7505493164062 917.39892578125 1408.7505493164062Q794.4981689453125 1408.7505493164062 685.9725646972656 1343.0502319335938Q577.4469604492188 1277.3499145507812 489.696533203125 1164.0994873046875Q401.94610595703125 1050.8490600585938 340.84588623046875 907.2237243652344Q279.74566650390625 763.598388671875 252.595703125 607.6983642578125Q214.24578857421875 388.84857177734375 247.84600830078125 256.6986083984375Q281.44622802734375 124.54864501953125 368.196533203125 65.17361450195312Q454.94683837890625 5.798583984375 574.4472045898438 5.798583984375Q651.6973876953125 5.798583984375 734.9725646972656 36.3985595703125Q818.2477416992188 66.99853515625 896.2728576660156 137.77346801757812Q974.2979736328125 208.54840087890625 1036.197998046875 329.14825439453125Q1040.2479858398438 336.2982177734375 1045.197998046875 339.7982177734375Q1050.1480102539062 343.2982177734375 1051.2979736328125 341.2982177734375ZM1757.7461547851562 214.44964599609375Q1727.196044921875 95.399169921875 1729.8460083007812 59.374053955078125Q1732.4959716796875 23.34893798828125 1766.796142578125 23.34893798828125Q1789.6461791992188 23.34893798828125 1819.6712951660156 42.24896240234375Q1849.6964111328125 61.14898681640625 1895.8966064453125 116.44915771484375Q1898.2465209960938 119.8990478515625 1900.7465209960938 121.47402954101562Q1903.2465209960938 123.04901123046875 1905.3464965820312 121.14898681640625Q1907.4964599609375 120.198974609375 1906.5464477539062 117.44903564453125Q1905.596435546875 114.6990966796875 1903.3464965820312 111.0992431640625Q1855.9463500976562 46.34942626953125 1811.7218933105469 15.54974365234375Q1767.4974365234375 -15.24993896484375 1726.8985595703125 -15.24993896484375Q1698.0492553710938 -15.24993896484375 1679.3744201660156 2.04986572265625Q1660.6995849609375 19.34967041015625 1660.6995849609375 57.34942626953125Q1660.6995849609375 78.0994873046875 1666.5746154785156 113.94964599609375Q1672.4496459960938 149.7998046875 1686.0247497558594 205.72518920898438Q1699.599853515625 261.65057373046875 1722.2000732421875 342.1263122558594Q1744.80029296875 422.60205078125 1777.2506713867188 532.603271484375L1782.6005859375 528.603271484375Q1723.6503295898438 371.6025390625 1652.0999755859375 248.65179443359375Q1580.5496215820312 125.7010498046875 1500.1493530273438 55.225555419921875Q1419.7490844726562 -15.24993896484375 1333.7490844726562 -15.24993896484375Q1252.8995361328125 -15.24993896484375 1214.5748596191406 60.900146484375Q1176.2501831054688 137.05023193359375 1211.400634765625 314.1009521484375Q1228.5008544921875 403.80078125 1271.5509643554688 486.1755676269531Q1314.60107421875 568.5503540039062 1375.7510375976562 637.900146484375Q1436.9010009765625 707.2499389648438 1511.1258239746094 758.9497680664062Q1585.3506469726562 810.6495971679688 1665.7503051757812 839.5744934082031Q1746.1499633789062 868.4993896484375 1827.2494506835938 868.4993896484375Q1866.4986572265625 868.4993896484375 1889.5227966308594 862.5494995117188Q1912.5469360351562 856.599609375 1922.496337890625 848.5747375488281Q1932.4457397460938 840.5498657226562 1932.4457397460938 833.3499145507812Q1932.4457397460938 827.0499877929688 1927.995849609375 822.1249694824219Q1923.5459594726562 817.199951171875 1919.0460815429688 812.699951171875Q1914.5462036132812 808.199951171875 1912.4462280273438 801.7000732421875ZM1274.396728515625 290.60107421875Q1243.996337890625 146.5001220703125 1277.4465942382812 79.72457885742188Q1310.8968505859375 12.94903564453125 1369.79736328125 12.94903564453125Q1411.8475952148438 12.94903564453125 1458.6478881835938 41.824066162109375Q1505.4481811523438 70.6990966796875 1555.1235046386719 130.7991943359375Q1604.798828125 190.8992919921875 1655.9491577148438 283.99951171875Q1707.0994873046875 377.0997314453125 1757.3997802734375 505.05010986328125Q1807.7000732421875 633.00048828125 1854.8502807617188 797.6510620117188Q1863.5001220703125 826.400390625 1856.8250427246094 839.6749572753906Q1850.1499633789062 852.9495239257812 1820.5001220703125 852.9495239257812Q1743.5496215820312 852.9495239257812 1671.7242126464844 825.5497436523438Q1599.8988037109375 798.1499633789062 1536.7984619140625 747.9002685546875Q1473.6981201171875 697.6505737304688 1421.9228210449219 627.600830078125Q1370.1475219726562 557.5510864257812 1332.2472534179688 472.65118408203125Q1294.3469848632812 387.75128173828125 1274.396728515625 290.60107421875ZM2068.0507202148438 729.4508666992188Q2066.9507446289062 731.3508911132812 2067.425750732422 733.4258728027344Q2067.9007568359375 735.5008544921875 2070.0507202148438 738.80078125Q2102.5006103515625 782.200439453125 2133.0502319335938 811.0001220703125Q2163.599853515625 839.7998046875 2192.8243103027344 853.6745910644531Q2222.0487670898438 867.5493774414062 2248.4981689453125 867.5493774414062Q2280.5476684570312 867.5493774414062 2298.7225036621094 850.8745422363281Q2316.8973388671875 834.19970703125 2316.8973388671875 796.6998291015625Q2316.8973388671875 774.3501586914062 2309.5724182128906 743.900390625Q2302.2474975585938 713.4506225585938 2285.5975341796875 663.4506225585938Q2268.9475708007812 613.4506225585938 2241.4474487304688 535.2503051757812Q2213.9473266601562 457.04998779296875 2173.5469360351562 339.19921875L2170.9470825195312 341.34918212890625Q2206.0470581054688 443.4989013671875 2253.4720764160156 537.5488891601562Q2300.8970947265625 631.598876953125 2355.3221130371094 706.0989990234375Q2409.7471313476562 780.59912109375 2467.2721252441406 824.0742492675781Q2524.797119140625 867.5493774414062 2581.0470581054688 867.5493774414062Q2620.9465942382812 867.5493774414062 2641.1214294433594 845.4998779296875Q2661.2962646484375 823.4503784179688 2660.596435546875 787.801025390625Q2660.0465698242188 769.2516479492188 2651.996826171875 753.2270202636719Q2643.9470825195312 737.202392578125 2630.9974365234375 727.5025634765625Q2618.0477905273438 717.802734375 2602.2982177734375 717.802734375Q2589.19873046875 717.802734375 2579.9740295410156 725.2525024414062Q2570.7493286132812 732.7022705078125 2570.7493286132812 743.001708984375Q2570.7493286132812 759.4515991210938 2574.8243103027344 773.00146484375Q2578.8992919921875 786.5513305664062 2578.8992919921875 799.9012451171875Q2578.8992919921875 819.8512573242188 2572.874298095703 831.7262878417969Q2566.8493041992188 843.601318359375 2549.999267578125 843.601318359375Q2498.5488891601562 843.601318359375 2428.173370361328 777.6509399414062Q2357.7978515625 711.7005615234375 2283.0473022460938 576.5997314453125Q2208.2967529296875 441.4989013671875 2143.2462768554688 233.99755859375Q2127.8963623046875 184.44793701171875 2117.1964111328125 150.67324829101562Q2106.4964599609375 116.8985595703125 2106.4964599609375 83.99853515625Q2106.4964599609375 71.998779296875 2109.7462768554688 63.573883056640625Q2112.99609375 55.14898681640625 2116.2459106445312 48.4990234375Q2119.4957275390625 41.84906005859375 2119.4957275390625 34.59912109375Q2119.4957275390625 23.24920654296875 2109.9462280273438 11.324432373046875Q2100.396728515625 -0.600341796875 2083.572540283203 -7.925140380859375Q2066.7483520507812 -15.24993896484375 2045.9492797851562 -15.24993896484375Q2028.9497680664062 -15.24993896484375 2023.3750305175781 -6.2000732421875Q2017.80029296875 2.84979248046875 2021.4503784179688 22.174591064453125Q2025.1004638671875 41.4993896484375 2035.2504272460938 73.2991943359375L2216.5008544921875 637.5498657226562Q2254.401123046875 754.5006103515625 2248.10107421875 790.9257507324219Q2241.801025390625 827.3508911132812 2207.5508422851562 827.3508911132812Q2185.7008056640625 827.3508911132812 2155.0257263183594 808.4508666992188Q2124.3506469726562 789.5508422851562 2077.5006103515625 733.8507690429688Q2075.3006591796875 730.6508178710938 2072.7256774902344 729.5758361816406Q2070.1506958007812 728.5008544921875 2068.0507202148438 729.4508666992188ZM2745.5966796875 184.04925537109375Q2713.0465698242188 89.74908447265625 2721.921600341797 56.54901123046875Q2730.796630859375 23.34893798828125 2761.2967529296875 23.34893798828125Q2784.1467895507812 23.34893798828125 2815.596923828125 42.24896240234375Q2847.0470581054688 61.14898681640625 2893.2472534179688 116.44915771484375Q2895.59716796875 119.8990478515625 2898.09716796875 121.47402954101562Q2900.59716796875 123.04901123046875 2902.6971435546875 121.14898681640625Q2904.8471069335938 120.198974609375 2903.8970947265625 117.44903564453125Q2902.9470825195312 114.6990966796875 2900.6971435546875 111.0992431640625Q2853.2969970703125 46.34942626953125 2808.9475708007812 15.54974365234375Q2764.59814453125 -15.24993896484375 2723.2494506835938 -15.24993896484375Q2693.7000732421875 -15.24993896484375 2674.3502807617188 1.174957275390625Q2655.00048828125 17.599853515625 2652.075469970703 51.94964599609375Q2649.1504516601562 86.2994384765625 2667.400390625 138.54913330078125L2840.3508911132812 635.6498413085938Q2880.201171875 750.7005615234375 2873.8761291503906 789.0257263183594Q2867.5510864257812 827.3508911132812 2832.3508911132812 827.3508911132812Q2810.5008544921875 827.3508911132812 2779.8257751464844 808.4508666992188Q2749.1506958007812 789.5508422851562 2702.3006591796875 733.8507690429688Q2700.1007080078125 730.7008056640625 2697.5507202148438 729.600830078125Q2695.000732421875 728.5008544921875 2692.8507690429688 729.4508666992188Q2691.7008056640625 731.3508911132812 2692.225799560547 733.4758605957031Q2692.7507934570312 735.600830078125 2694.8507690429688 738.80078125Q2743.5006103515625 805.7503051757812 2788.2249450683594 836.6498413085938Q2832.9492797851562 867.5493774414062 2872.6983642578125 867.5493774414062Q2903.4479370117188 867.5493774414062 2922.9226989746094 850.99951171875Q2942.3974609375 834.4496459960938 2944.29736328125 797.1248474121094Q2946.197265625 759.800048828125 2924.0972900390625 697.000244140625ZM2949.79931640625 1058.5008544921875Q2933.8500366210938 1058.5008544921875 2927.5254821777344 1067.9255065917969Q2921.200927734375 1077.3501586914062 2921.200927734375 1091.599609375Q2921.200927734375 1113.19921875 2934.6007080078125 1148.8990478515625Q2948.00048828125 1184.598876953125 2967.3500366210938 1212.798828125Q2986.6995849609375 1240.998779296875 3005.5488891601562 1240.998779296875Q3021.39794921875 1240.998779296875 3027.1725158691406 1231.09912109375Q3032.9470825195312 1221.199462890625 3032.9470825195312 1207.9500122070312Q3032.9470825195312 1180.3004150390625 3020.072296142578 1145.0755920410156Q3007.197509765625 1109.8507690429688 2987.7229919433594 1084.1758117675781Q2968.2484741210938 1058.5008544921875 2949.79931640625 1058.5008544921875ZM3633.2496948242188 1439.599609375Q3670.3489379882812 1439.599609375 3684.6484985351562 1429.2499389648438Q3698.9480590820312 1418.9002685546875 3698.9480590820312 1404.0507202148438Q3698.9480590820312 1389.5510864257812 3689.3483276367188 1381.4513549804688Q3679.7485961914062 1373.3516235351562 3659.9990234375 1373.3516235351562Q3646.6993408203125 1373.3516235351562 3632.2996826171875 1377.5264587402344Q3617.9000244140625 1381.7012939453125 3602.600341796875 1387.60107421875Q3587.3006591796875 1393.5008544921875 3570.8758850097656 1397.6756896972656Q3554.4511108398438 1401.8505249023438 3537.1011962890625 1401.8505249023438Q3510.7510375976562 1401.8505249023438 3484.100830078125 1378.2503051757812Q3457.4506225585938 1354.6500854492188 3440.0504760742188 1319.3997802734375Q3422.6503295898438 1284.1494750976562 3422.6503295898438 1249.19921875Q3422.6503295898438 1232.4993896484375 3423.375030517578 1216.8495483398438Q3424.0997314453125 1201.19970703125 3425.2493286132812 1186.199951171875Q3426.39892578125 1171.2001953125 3426.3485717773438 1156.0006103515625Q3426.2982177734375 1140.801025390625 3424.373077392578 1125.6016845703125Q3422.4479370117188 1110.40234375 3417.3482055664062 1094.2533569335938L3139.5466918945312 184.04925537109375Q3109.9465942382812 87.799072265625 3117.3466186523438 55.574005126953125Q3124.7466430664062 23.34893798828125 3155.2467651367188 23.34893798828125Q3178.0968017578125 23.34893798828125 3209.5469360351562 42.24896240234375Q3240.9970703125 61.14898681640625 3287.197265625 116.44915771484375Q3289.5471801757812 119.8990478515625 3292.0471801757812 121.47402954101562Q3294.5471801757812 123.04901123046875 3296.6471557617188 121.14898681640625Q3298.797119140625 120.198974609375 3297.8471069335938 117.44903564453125Q3296.8970947265625 114.6990966796875 3294.6471557617188 111.0992431640625Q3263.0470581054688 67.599365234375 3232.622283935547 39.799560546875Q3202.197509765625 11.999755859375 3173.5480346679688 -1.625091552734375Q3144.8985595703125 -15.24993896484375 3117.7493286132812 -15.24993896484375Q3088.2499389648438 -15.24993896484375 3069.8001708984375 0.7999267578125Q3051.3504028320312 16.84979248046875 3048.275421142578 50.724578857421875Q3045.200439453125 84.599365234375 3061.400390625 138.54913330078125L3407.2514038085938 1274.9512329101562Q3431.3011474609375 1352.2001953125 3486.20068359375 1395.89990234375Q3541.1002197265625 1439.599609375 3633.2496948242188 1439.599609375ZM3551.5966796875 184.04925537109375Q3519.0465698242188 89.74908447265625 3527.921600341797 56.54901123046875Q3536.796630859375 23.34893798828125 3567.2967529296875 23.34893798828125Q3590.1467895507812 23.34893798828125 3621.596923828125 42.24896240234375Q3653.0470581054688 61.14898681640625 3699.2472534179688 116.44915771484375Q3701.59716796875 119.8990478515625 3704.09716796875 121.47402954101562Q3706.59716796875 123.04901123046875 3708.6971435546875 121.14898681640625Q3710.8471069335938 120.198974609375 3709.8970947265625 117.44903564453125Q3708.9470825195312 114.6990966796875 3706.6971435546875 111.0992431640625Q3659.2969970703125 46.34942626953125 3614.9475708007812 15.54974365234375Q3570.59814453125 -15.24993896484375 3529.2494506835938 -15.24993896484375Q3499.7000732421875 -15.24993896484375 3480.3502807617188 1.174957275390625Q3461.00048828125 17.599853515625 3458.075469970703 51.94964599609375Q3455.1504516601562 86.2994384765625 3473.400390625 138.54913330078125L3646.3508911132812 635.6498413085938Q3686.201171875 750.7005615234375 3679.8761291503906 789.0257263183594Q3673.5510864257812 827.3508911132812 3638.3508911132812 827.3508911132812Q3616.5008544921875 827.3508911132812 3585.8257751464844 808.4508666992188Q3555.1506958007812 789.5508422851562 3508.3006591796875 733.8507690429688Q3506.1007080078125 730.7008056640625 3503.5507202148438 729.600830078125Q3501.000732421875 728.5008544921875 3498.8507690429688 729.4508666992188Q3497.7008056640625 731.3508911132812 3498.225799560547 733.4758605957031Q3498.7507934570312 735.600830078125 3500.8507690429688 738.80078125Q3549.5006103515625 805.7503051757812 3594.2249450683594 836.6498413085938Q3638.9492797851562 867.5493774414062 3678.6983642578125 867.5493774414062Q3709.4479370117188 867.5493774414062 3728.9226989746094 850.99951171875Q3748.3974609375 834.4496459960938 3750.29736328125 797.1248474121094Q3752.197265625 759.800048828125 3730.0972900390625 697.000244140625ZM3755.79931640625 1058.5008544921875Q3739.8500366210938 1058.5008544921875 3733.5254821777344 1067.9255065917969Q3727.200927734375 1077.3501586914062 3727.200927734375 1091.599609375Q3727.200927734375 1113.19921875 3740.6007080078125 1148.8990478515625Q3754.00048828125 1184.598876953125 3773.3500366210938 1212.798828125Q3792.6995849609375 1240.998779296875 3811.5488891601562 1240.998779296875Q3827.39794921875 1240.998779296875 3833.1725158691406 1231.09912109375Q3838.9470825195312 1221.199462890625 3838.9470825195312 1207.9500122070312Q3838.9470825195312 1180.3004150390625 3826.072296142578 1145.0755920410156Q3813.197509765625 1109.8507690429688 3793.7229919433594 1084.1758117675781Q3774.2484741210938 1058.5008544921875 3755.79931640625 1058.5008544921875Z" transform="translate(196.174,310.859) scale(0.052000,-0.052000)" fill="#f6f1e9"/>
<path d="M9.493966430425644 34.696985721588135Q9.493966430425644 49.217879086732864 20.496570840477943 59.759890615940094Q31.499175250530243 70.30190214514732 52.52963030338287 75.36720380187035L113.94711673259735 86.56181216239929Q131.57617035508156 90.18131601810455 144.91093404591084 99.6641167551279Q158.2456977367401 109.14691749215126 169.58188086748123 128.95274157822132Q180.91806399822235 148.75856566429138 191.99227678775787 182.85409459471703Q203.53925895690918 228.64912509918213 222.58115735650063 299.3217295408249Q241.62305575609207 369.99433398246765 264.97341914474964 456.19868789613247Q288.3237825334072 542.4030418097973 313.6477080285549 635.9219701886177Q338.9716335237026 729.4408985674381 364.0080067664385 822.0046595036983Q389.04438000917435 914.5684204399586 410.6050110012293 997.1270127296448Q432.1656419932842 1079.685605019331 448.2779466807842 1144.7955807000399Q464.3902513682842 1209.9055563807487 472.2726544737816 1247.3605109155178Q479.5238439142704 1277.2793088555336 471.70876182615757 1292.126281067729Q463.89367973804474 1306.9732532799244 437.96117866039276 1312.5241848826408L379.8264815211296 1325.6571760177612Q358.9560293853283 1331.6539054214954 350.15902115404606 1339.3535141944885Q341.3620129227638 1347.0531229674816 341.3620129227638 1360.8693982064724Q341.3620129227638 1379.017633229494 355.136172413826 1389.508816614747Q368.91033190488815 1400.0 396.5968687236309 1400.0H906.3519049286842Q1046.8240922391415 1400.0 1161.225181043148 1352.1886112838984Q1275.6262698471546 1304.3772225677967 1353.0100291371346 1214.1501688063145Q1430.3937884271145 1123.9231150448322 1460.6050169616938 995.7111667394638Q1490.816245496273 867.4992184340954 1462.5203783214092 706.2081090211868Q1433.2806947529316 539.9756588637829 1355.9746548086405 408.79447972774506Q1278.6686148643494 277.61330059170723 1163.2208795696497 186.75601939857006Q1047.77314427495 95.89873820543289 902.5222823321819 47.949369102716446Q757.2714203894138 0.0 590.4895049333572 0.0H53.58908000588417Q28.03923961520195 0.0 18.766603022813797 9.902150213718414Q9.493966430425644 19.80430042743683 9.493966430425644 34.696985721588135ZM604.3332608938217 79.3186883032322Q709.8701350688934 79.3186883032322 804.4174261540174 119.28531621396542Q898.9647172391415 159.25194412469864 976.891294926405 239.11974495649338Q1054.8178726136684 318.9875457882881 1111.0663951188326 437.1761578321457Q1167.3149176239967 555.3647698760033 1195.3263044059277 712.1284998357296Q1223.7183942496777 866.2038916647434 1210.5560236126184 981.0350066572428Q1197.3936529755592 1095.8661216497421 1153.1797374039888 1171.9452507644892Q1108.9658218324184 1248.0243798792362 1043.8566254675388 1286.0219756960869Q978.7474291026592 1324.0195715129375 902.7558772563934 1324.0195715129375H818.8090120851994Q784.41624340415 1324.0195715129375 760.7370225936174 1302.6627257466316Q737.0578017830849 1281.3058799803257 722.258672952652 1234.05387327075Q712.3962893784046 1194.3690290749073 694.7435042411089 1128.6950758993626Q677.0907191038132 1063.0211227238178 654.3170002400875 980.363427951932Q631.5432813763618 897.7057331800461 606.2377758473158 806.3367555290461Q580.9322703182697 714.967777878046 556.0399117618799 623.2990580648184Q531.1475532054901 531.6303382515907 509.1353714764118 448.1367729753256Q487.1231897473335 364.64320769906044 470.94265073537827 297.2163181453943Q454.762111723423 229.7894285917282 447.2490963637829 188.1331012248993Q436.90208172798157 132.71718236804008 452.87161922454834 106.01793533563614Q468.8411567211151 79.3186883032322 512.5913353562355 79.3186883032322ZM2999.7544789891913 745.369789659977H3340.3964407425597Q3390.0598318856432 745.369789659977 3422.602333216019 774.7561102062464Q3455.1448345463946 804.1424307525158 3464.1769330781176 886.2374282777309Q3469.594007132597 900.710444778204 3478.9804899227097 907.6389398574829Q3488.366972712822 914.5674349367619 3500.8634862583353 914.5674349367619Q3519.5678795855715 914.5674349367619 3529.625991744943 904.7622509747744Q3539.6841039043143 894.9570670127869 3541.898731796093 877.5397860407829L3586.355139313288 570.5705967843533Q3591.0486490410044 543.5344505906105 3580.1710945051386 531.1392554044724Q3569.293539969273 518.7440602183342 3551.0436486583426 517.6554684340954Q3535.2585013490393 517.0603443980217 3524.573478488274 524.9854654222727Q3513.8884556275084 532.9105864465237 3506.724975196667 547.2671538293362Q3480.7525541465952 621.7774970829487 3444.8017350714877 649.7373225688934Q3408.85091599638 677.6971480548382 3342.3763706069662 677.6971480548382H2979.0319850128367ZM3276.362060098 0.0H2570.8914164584353Q2545.5187596362307 0.0 2535.780409170337 10.068563312292099Q2526.042058704443 20.137126624584198 2526.042058704443 35.029811918735504Q2526.042058704443 49.534163266420364 2536.6232451331093 60.383746579289436Q2547.2044315617754 71.23332989215851 2564.3535329979136 75.78862178325653L2634.462726382561 88.93467742204666Q2660.5972255449965 94.62818714976311 2675.268848223634 109.93935851752758Q2689.9404709022715 125.25052988529205 2700.5488663595393 157.2659643292427Q2708.237543879099 188.54877144098282 2725.620858801551 252.95383498072624Q2743.004173724003 317.35889852046967 2766.2932578157856 403.3063867241144Q2789.582341907568 489.25387492775917 2816.2776179444268 586.8538847863674Q2842.9728939812853 684.4538946449757 2869.579578233905 783.126932322979Q2896.186262486525 881.7999700009823 2920.3303724508955 971.4554332643747Q2944.4744824152663 1061.1108965277672 2962.377497551985 1131.1554663330317Q2980.2805126887038 1201.2000361382961 2989.185774205275 1240.7085452973843Q2997.2806823831274 1273.9236242473125 2990.9205436986163 1290.914152637124Q2984.560405014105 1307.9046810269356 2964.510741738625 1312.3470013141632L2899.037183372326 1325.745767802Q2884.844772277422 1330.0899093151093 2875.3809095602705 1338.0167690962553Q2865.917046843119 1345.9436288774014 2865.917046843119 1360.0265622437Q2865.917046843119 1378.1913392841816 2879.5330642443373 1389.0956696420908Q2893.1490816455557 1400.0 2918.53480297143 1400.0H3619.6008520703986Q3672.4924982767775 1400.0 3704.3280390333607 1417.2847148627043Q3736.163579789944 1434.5694297254086 3763.072131244488 1434.5694297254086Q3804.582346407719 1434.5694297254086 3813.135441033192 1387.2198561131954L3843.67591625268 1100.7259878516197Q3848.304331241198 1076.1101863086224 3839.1175696235373 1062.5451005101204Q3829.9308080058768 1048.9800147116184 3811.562718389578 1046.9556348919868Q3790.412527261324 1044.9312550723553 3775.581881968327 1055.9906832128763Q3760.7512366753294 1067.0501113533974 3748.4449712019637 1096.7024908065796Q3719.894416211195 1192.5675510466099 3689.713145507522 1243.4496944099665Q3659.5318748038485 1294.331837773323 3622.039952276297 1313.7510160654783Q3584.548029748745 1333.1701943576336 3532.79798656518 1333.1701943576336H3263.1198666375353Q3249.1380045097544 1281.8513452410698 3227.205298004694 1201.5856592059135Q3205.272591499634 1121.3199731707573 3178.710118291922 1023.014336630702Q3152.1476450842097 924.7087000906467 3123.452265588589 818.615776270628Q3094.756886092968 712.5228524506092 3067.188840074487 608.9709457457066Q3039.6207940560057 505.4190390408039 3016.135362846799 414.7151183336973Q2992.6499316375925 324.01119762659073 2975.897324247308 256.2628485560417Q2959.1447168570235 188.5144994854927 2952.231824455805 155.19336527585983Q2945.6401779335215 126.17526462674141 2951.2049161326363 106.43885983526707Q2956.769654331751 86.70245504379272 2978.1121032219603 77.18754832446575Q2999.4545521121695 67.67264160513878 3038.985328672476 67.67264160513878H3244.968280611582Q3316.962677298136 67.67264160513878 3373.8901541512682 93.93443033099174Q3430.8176310044005 120.19621905684471 3480.0868027638867 180.236158400774Q3529.355974523373 240.2760977447033 3577.1182709019854 341.2504109144211Q3598.330527333565 380.007940530777 3625.9918179195597 380.007940530777Q3662.301352469273 380.007940530777 3661.144188432045 333.95393934845924Q3658.2410154920294 256.96977868676186 3637.219897327967 191.17525799572468Q3616.1987791639044 125.3807373046875 3581.5090677570774 76.49999850988388Q3546.8193563502505 27.61925971508026 3501.2305033039524 0.52099609375Q3455.6416502576544 -26.57726752758026 3403.776713607855 -26.57726752758026Q3371.721321968384 -26.57726752758026 3343.870107067771 -13.28863376379013Q3316.0188921671584 0.0 3276.362060098 0.0ZM5352.57776081194 -22.429255783557892Q5265.992804314986 -22.429255783557892 5208.983959417835 -5.234854340553284Q5151.975114520684 11.959547102451324 5117.281266864434 34.35846321284771Q5082.587419208184 56.757379323244095 5063.12595398356 73.9517807662487Q5043.664488758936 91.14618220925331 5032.085699822798 91.14618220925331Q5020.948348399296 91.14618220925331 5005.014462124601 75.55072024464607Q4989.0805758499055 59.955258280038834 4970.919637303844 39.57224406301975Q4952.758698757782 19.18922984600067 4935.170044448271 3.5937678813934326Q4917.58139013876 -12.001694083213806 4902.7296266817 -12.001694083213806Q4879.8582754098325 -12.001694083213806 4868.71015202631 0.5125635713338852Q4857.562028642788 13.026821225881577 4860.211139019623 39.48111480474472L4908.513748403683 396.68288668990135Q4910.915146853819 424.5185591876507 4923.442572470799 438.756157130003Q4935.969998087779 452.99375507235527 4955.27387573947 452.99375507235527Q4974.278011228934 452.99375507235527 4986.191590648189 439.8369192928076Q4998.105170067444 426.6800835132599 5007.094078030482 400.9704471230507L5026.144070293799 298.2197280228138Q5042.672401007309 180.16695940494537 5118.902747686997 119.25766284763813Q5195.133094366684 58.34836629033089 5303.257674571171 58.34836629033089Q5373.9699518643765 58.34836629033089 5428.034358095422 84.52786472439766Q5482.098764326468 110.70736315846443 5515.537855710879 157.88094267249107Q5548.97694709529 205.05452218651772 5557.835479524031 267.1384217143059Q5573.061480816498 355.59989961981773 5528.974862258926 431.9462592601776Q5484.8882437013535 508.2926189005375 5354.322495427027 593.7453553676605Q5206.36381175746 691.4869667589664 5144.568662863269 788.4730834960938Q5082.7735139690785 885.459200233221 5097.455069746867 1014.4388234317303Q5109.046077635184 1122.2182111144066 5173.678942989603 1215.661993265152Q5238.311808344021 1309.1057754158974 5353.564776744738 1366.9499340504408Q5468.817745145455 1424.7940926849842 5630.492280390158 1424.7940926849842Q5767.738612320319 1424.7940926849842 5860.796993922487 1380.613066881895Q5953.855375524655 1336.432041078806 6000.3240213059335 1266.4092526435852Q6046.792667087212 1196.3864642083645 6043.991826292172 1118.7595200240612Q6041.858159299984 1067.4765923023224 6016.076175387993 1034.5435352176428Q5990.294191476002 1001.6104781329632 5946.47818866004 1001.6104781329632Q5909.92301287879 1001.6104781329632 5887.589813780084 1022.9811491072178Q5865.256614681378 1044.3518200814724 5850.842135366097 1090.6323599815369L5832.639013346329 1165.9958690106869Q5809.506022211209 1261.3291611671448 5753.492295261517 1306.7629663050175Q5697.478568311825 1352.1967714428902 5614.494162049189 1352.1967714428902Q5532.368304576769 1352.1967714428902 5470.764922183052 1319.5843900889158Q5409.161539789334 1286.9720087349415 5372.7694611065535 1232.5103998482227Q5336.377382423773 1178.048790961504 5328.715207543269 1111.551936507225Q5315.9763948284535 1015.3538089096546 5364.535976301923 937.1335397213697Q5413.095557775393 858.9132705330849 5539.664709117308 768.521512657404Q5653.892529543534 690.197281986475 5715.099487107292 620.8806822001934Q5776.30644467105 551.5640824139118 5796.780974399343 481.8470793515444Q5817.255504127636 412.13007628917694 5807.7212842368035 332.5372656285763Q5797.081930544272 225.55715268850327 5735.97751353313 145.75516414642334Q5674.873096521988 65.95317560434341 5576.06525529553 21.76195991039276Q5477.257414069071 -22.429255783557892 5352.57776081194 -22.429255783557892ZM7419.55192464038 151.3063845038414Q7412.648147309266 122.72676339745522 7420.254700550877 106.81070087850094Q7427.861253792487 90.89463835954666 7451.362339044057 85.94230830669403L7512.751869851791 73.74074491858482Q7531.187876725637 68.76403504610062 7539.5665217135775 60.43229930102825Q7547.945166701518 52.10056355595589 7547.945166701518 38.37288010120392Q7547.945166701518 21.05093902349472 7533.119201013886 10.52546951174736Q7518.293235326253 0.0 7493.227275693856 0.0H7039.604679817401Q7012.546351069652 0.0 7002.808000603758 9.525028124451637Q6993.069650137864 19.050056248903275 6993.069650137864 34.186975955963135Q6992.648232156478 50.08313876390457 7003.9253243152725 60.43925432860851Q7015.202416474067 70.79536989331245 7033.488214338266 75.36720380187035L7098.118973964893 86.82758751511574Q7125.364040548049 92.52109724283218 7140.929327333413 108.20872527360916Q7156.4946141187775 123.89635330438614 7166.816331917487 155.81188064813614Q7177.372225219451 194.3138828575611 7195.927610898458 262.48015378415585Q7214.482996577464 330.6464247107506 7238.379394615136 418.0027077794075Q7262.275792652808 505.3589908480644 7288.549650708281 602.2438361495733Q7314.823508763753 699.1286814510822 7340.763779917799 796.4449544996023Q7366.704051071845 893.7612275481224 7389.4405682627785 981.8492171913385Q7412.177085453712 1069.9372068345547 7429.405416483127 1139.679759055376Q7446.633747512542 1209.4223112761974 7454.781287336789 1250.1454483270645Q7460.698129171573 1276.9776105880737 7454.04216722592 1291.8172898441553Q7447.386205280267 1306.656969100237 7422.46629678651 1312.3470013141632L7359.926122272454 1325.745767802Q7340.2859572713005 1331.7259551882744 7332.281717563115 1340.0576909333467Q7324.27747785493 1348.389426678419 7324.27747785493 1361.7122341692448Q7324.27747785493 1379.8604691922665 7340.000585163079 1389.9302345961332Q7355.723692471229 1400.0 7386.166429573737 1400.0H7835.525617057525Q7862.159050310098 1400.0 7871.511246973716 1391.1974293887615Q7880.863443637334 1382.394858777523 7880.863443637334 1367.6758795380592Q7880.863443637334 1351.604054570198 7869.753525281392 1341.4243618696928Q7858.6436069254505 1331.2446691691875 7837.406361782991 1325.2313977479935L7768.918217504464 1309.9351703226566Q7743.326377445899 1304.330252379179 7729.646483758532 1291.5628402382135Q7715.966590071164 1278.795428097248 7706.847508991204 1249.261677145958Q7694.7076000516045 1206.4610567092896 7674.620765635811 1133.436402976513Q7654.533931220018 1060.4117492437363 7629.4832065348255 968.400058016181Q7604.432481849633 876.3883667886257 7577.470011020147 775.6075737774372Q7550.50754019066 674.8267807662487 7524.820535162531 576.2733422219753Q7499.1335301344025 477.71990367770195 7477.107721934162 391.8467406630516Q7455.081913733922 305.97357764840126 7439.955342451178 242.82873526215553Q7424.828771168433 179.6838928759098 7419.55192464038 151.3063845038414ZM9706.183746747762 1427.254666954279Q9783.993739836007 1427.254666954279 9836.23963484922 1412.759105399251Q9888.485529862433 1398.263543844223 9921.285411216408 1379.3537366837263Q9954.085292570382 1360.4439295232296 9973.700359471231 1345.9483679682016Q9993.31542637208 1331.4528064131737 10005.77517145136 1331.4528064131737Q10019.931903772145 1331.4528064131737 10035.856758333832 1344.8684885799885Q10051.781612895518 1358.2841707468033 10067.76874192813 1376.32480750978Q10083.755870960742 1394.3654442727566 10099.174193270594 1407.7811264395714Q10114.592515580445 1421.1968086063862 10128.069009594708 1421.1968086063862Q10148.915981046945 1421.1968086063862 10161.752717204481 1408.1195328980684Q10174.589453362018 1395.0422571897507 10177.404638908893 1367.028327792883L10186.370916240006 1033.3112971186638Q10187.938389860183 1010.2620864212513 10176.625592134982 999.7322648018599Q10165.312794409781 989.2024431824684 10148.24444695571 988.3926912546158Q10131.488023392945 987.1780633628368 10118.169568009764 996.2713362425566Q10104.851112626582 1005.3646091222763 10097.890944771558 1022.2483832836151L10069.086589239627 1104.161193817854Q10038.975515656262 1190.9373496472836 9995.08072387436 1243.8268641233444Q9951.185932092458 1296.7163785994053 9893.855830885559 1320.6997688561678Q9836.52572967866 1344.6831591129303 9765.009684883147 1344.6831591129303Q9659.741079591304 1344.6831591129303 9565.870575361043 1293.3105752170086Q9472.000071130782 1241.9379913210869 9394.796141512781 1147.6863307207823Q9317.59221189478 1053.4346701204777 9262.783828042537 924.6092686206102Q9207.975444190293 795.7838671207428 9180.568781815558 641.2996498942375Q9145.631414286881 435.95430848002434 9170.945280872374 307.968338355422Q9196.259147457868 179.9823682308197 9267.444633297711 120.62627720832825Q9338.630119137555 61.27018618583679 9440.651206038981 61.27018618583679Q9514.86981164673 61.27018618583679 9577.228658922106 84.89771690964699Q9639.587506197482 108.52524763345718 9683.106616161853 153.23605041205883Q9726.625726126224 197.94685319066048 9743.455290667802 261.06204292178154L9802.778581999331 492.37728065252304Q9811.310567401439 521.644770950079 9804.286937855273 538.9544022977352Q9797.263308309108 556.2640336453915 9770.047172390014 559.4952035546303L9682.69715514043 571.6462581157684Q9664.354328118354 574.7757717370987 9656.921377472669 584.541115373373Q9649.488426826983 594.3064590096474 9649.577018611222 607.6127244830132Q9649.577018611222 627.0252134501934 9663.614453993827 637.3056878447533Q9677.651889376431 647.5861622393131 9703.459028683692 647.5861622393131H10136.799045167952Q10163.837354384452 647.5861622393131 10172.987113066107 638.3621736466885Q10182.136871747762 629.1381850540638 10181.715453766376 612.7335338890553Q10181.20544400075 597.9259628653526 10169.718403555542 587.3508673012257Q10158.231363110333 576.7757717370987 10137.836953930646 571.115346044302L10087.094971887856 557.0999145805836Q10064.190759860068 551.2492408156395 10052.097157232552 538.2678409069777Q10040.003554605037 525.2864409983158 10033.384050749331 503.152567088604L9902.822237007409 34.3267687857151Q9892.06690313676 0.6848218739032745 9877.980378367096 -12.469297096133232Q9863.893853597432 -25.62341606616974 9839.51944758752 -25.62341606616974Q9827.115003340035 -25.62341606616974 9812.790669210344 -16.36385364830494Q9798.466335080653 -7.10429123044014 9783.481746442705 6.421046540141106Q9768.497157804757 19.94638431072235 9753.46827327469 33.929164946079254Q9738.439388744622 47.91194558143616 9725.184604920536 57.17150799930096Q9711.92982109645 66.43107041716576 9701.089372955352 66.43107041716576Q9687.127248995095 66.43107041716576 9662.98478475967 52.56387473642826Q9638.842320524245 38.696679055690765 9600.3231941984 20.315235391259193Q9561.804067872554 1.9337917268276215 9505.320568956524 -11.933403953909874Q9448.837070040494 -25.80059963464737 9369.630836717874 -25.80059963464737Q9201.919790528804 -25.80059963464737 9084.789779685527 53.18137416243553Q8967.65976884225 132.16334795951843 8918.775787003427 281.07884480059147Q8869.891805164605 429.9943416416645 8904.801522277385 640.130677819252Q8932.106528364211 804.2347755134106 9005.75597666958 946.9649301469326Q9079.405424974948 1089.6950847804546 9187.402370236903 1197.6368892341852Q9295.399315498858 1305.5786936879158 9427.993546329528 1366.4166803210974Q9560.587777160197 1427.254666954279 9706.183746747762 1427.254666954279ZM11505.082947423793 250.14186054468155 11742.677781155444 1134.3191111385822 11668.808874329663 1123.222284078598Q11709.620317360497 1023.0176808536053 11754.160320690013 917.2871607393026Q11798.700324019528 811.556640625 11843.030710300542 706.8092472553253Q11887.361096581555 602.0618538856506 11927.96858396206 505.41949903964996Q11968.576071342564 408.7771441936493 12001.907875573374 326.67758244276047Q12035.239679804183 244.57802069187164 12057.28731252823 184.58330395817757Q12073.37827425275 151.21744883060455 12079.585712647176 125.22463908791542Q12085.793151041604 99.23182934522629 12084.901762357093 67.07400733232498Q12084.323180338479 34.69612380862236 12099.732521539665 17.34806190431118Q12115.141862740851 0.0 12144.519746264554 0.0H12345.308441093302Q12376.889844110347 0.0 12389.302221438027 21.49498988687992Q12401.714598765708 42.98997977375984 12387.739203384257 73.86676466464996L12339.920659413672 208.52128785848618Q12328.334915449954 238.7979095876217 12328.183305611945 259.20179855823517Q12328.031695773936 279.60568752884865 12335.531479915715 306.93789145350456L12496.654918303824 979.348227918148Q12511.34147300396 1034.5796791911125 12532.998873001075 1073.557638809085Q12554.65627299819 1112.5355984270573 12587.171554869152 1141.6070639044046Q12619.686836740113 1170.678529381752 12664.611156126595 1194.0340948998928Q12725.474791666604 1227.7540998458862 12753.864692425466 1262.9109199941158Q12782.254593184329 1298.0677401423454 12782.748060932494 1343.2308766841888Q12783.241528680659 1386.559221982956 12755.185103183723 1411.242013335228Q12727.128677686787 1435.9248046875 12682.162744244672 1435.9248046875Q12609.402164330817 1435.9248046875 12551.018741479254 1375.7330493479967Q12492.635318627692 1315.5412940084934 12459.107279678918 1189.5453089475632L12223.030830940343 227.79529550671577L12302.744808217622 260.3360714316368Q12273.107240935899 333.5570842027664 12237.101729160286 415.0671996772289Q12201.096217384673 496.57731515169144 12161.503436496592 584.9592754095793Q12121.910655608512 673.3412356674671 12080.38296945963 765.7667125016451Q12038.855283310748 858.1921893358231 11998.031230544782 952.5923149883747Q11957.207177778817 1046.9924406409264 11919.154007976986 1140.6219244897366Q11881.100838175154 1234.2514083385468 11848.226898124552 1325.0729519426823Q11828.964825084544 1363.7817055583 11808.084762906767 1381.89085277915Q11787.20470072899 1400.0 11747.363615473843 1400.0H11586.796515425778Q11561.760162314511 1400.0 11549.638590714074 1387.6112336069345Q11537.517019113637 1375.222467213869 11538.484913131333 1357.3774518668652Q11539.45280714903 1339.5324365198612 11553.909488549567 1322.2938605248928L11616.016524871922 1190.326683998108Q11634.29861744318 1165.725036650896 11637.825948542095 1132.640804424882Q11641.353279641009 1099.5565721988678 11630.948196759558 1063.6070989072323L11415.90423952613 257.2261084020138Q11397.45209108863 183.7492302954197 11360.85523124609 141.29332447052002Q11324.258371403552 98.83741864562035 11278.942670753337 86.92792931199074L11237.506775548793 76.6314577460289Q11198.421037545539 64.49997165799141 11198.421037545539 35.45122990012169Q11198.421037545539 19.205698877573013 11209.989159470535 9.602849438786507Q11221.557281395531 0.0 11246.684821030236 0.0H11597.492600550986Q11618.019810309745 0.0 11630.526775008178 8.863408520817757Q11643.033739706612 17.726817041635513 11643.033739706612 35.90813609957695Q11643.033739706612 49.28297382593155 11634.343604033924 58.80332234501839Q11625.653468361235 68.32367086410522 11611.199398061372 73.30038073658943L11573.428084900714 81.83477032184601Q11518.779541691876 98.19789525866508 11503.600036537386 140.57521906495094Q11488.420531382895 182.9525428712368 11505.082947423793 250.14186054468155Z" transform="translate(204.058,360.859) scale(0.015000,-0.015000)" fill="#f6f1e9"/>
</svg>