<svg xmlns="http://www.w3.org/2000/svg" viewBox="170.2 50 259.6 345.3" width="259.6" height="345.3" role="img" aria-label="Carili Design">
<path d="M230 190 L370 190" fill="none" stroke="#2a2521" stroke-width="2.6" stroke-linecap="round"/>
<path d="M248 150 C249 173 268 190 300 190 C332 190 351 173 352 150" fill="none" stroke="#c06b4e" stroke-width="3.4" stroke-linecap="round"/>
<path d="M248 150 L352 150" fill="none" stroke="#c06b4e" stroke-width="2.2" stroke-linecap="round"/>
<path d="M350 150 L350 104 C350 88 336 84 320 86 C312 87 306 92 306 104" fill="none" stroke="#2a2521" stroke-width="3.8" stroke-linecap="round" stroke-linejoin="round"/>
<path d="M306 114 C309 118.5 310.5 122 310.5 125.5 C310.5 129 308 131 306 131 C304 131 301.5 129 301.5 125.5 C301.5 122 303 118.5 306 114 Z" fill="#c06b4e"/>
<text x="300" y="300" font-family="Fraunces, Georgia, serif" font-size="60" font-weight="600" text-anchor="middle" fill="#2a2521">Carili</text>
<text x="300" y="360" font-family="Inter, system-ui, sans-serif" font-size="34" letter-spacing="6" text-anchor="middle" fill="#2a2521">DESIGN</text>
</svg>
